<?xml version="1.0" encoding="UTF-8" standalone="no"?>
<svg
   viewBox="0 0 239.99999 79.999999"
   
   xmlns="http://www.w3.org/2000/svg">
  
  <path
     fill="currentColor"
     d="m 66.873814,60.140726 q 1.096587,0 1.096587,1.169699 0,2.339396 -3.143559,5.336747 -3.143568,3.070458 -7.237512,3.070458 -2.266292,0 -4.751898,-1.096592 -2.412504,-1.023486 -5.11743,-3.21667 -2.631817,-2.193185 -4.678788,-4.093943 -1.973869,-1.90076 -4.971221,-4.971218 -2.924246,-3.070457 -4.532581,-4.605686 -6.79887,5.84849 -14.694332,5.84849 -5.190536,0 -7.895463,-2.120077 -2.7049266,-2.120079 -2.7049266,-5.263642 0,-3.582201 3.3628816,-6.43334 3.362883,-2.851139 8.845842,-2.851139 4.898112,0 10.60039,2.485609 1.608335,-2.485609 2.412503,-3.874626 -5.190536,-1.900759 -7.749251,-5.775384 -2.558715,-3.947732 -2.558715,-7.822357 0,-4.240155 2.778033,-6.506445 2.778034,-2.266291 5.336749,-2.266291 1.608334,0 1.608334,1.023486 0,0.365532 -0.146211,0.584853 -0.95038,2.778032 -0.95038,5.702278 0,6.725764 4.459474,10.234859 0.365532,-0.657954 1.096592,-1.973866 2.778033,-5.044323 4.313262,-7.603038 1.53523,-2.63182 4.313258,-6.725765 2.778036,-4.167049 4.898118,-6.287126 2.193183,-2.1200787 5.117429,-3.7284134 2.924239,-1.6814409 5.848486,-1.6814409 4.020842,0 6.506448,2.6318205 2.558715,2.5587148 2.558715,6.7257638 0,3.655307 -2.046972,7.895464 -2.046972,4.240154 -5.556064,8.041673 -3.509099,3.728413 -9.065162,6.287128 -5.482962,2.485609 -11.770089,2.631821 -1.900759,3.070457 -4.386367,6.140915 2.485608,1.462123 7.018191,4.459475 4.532578,2.924245 7.164395,4.605686 2.704933,1.608335 6.140916,2.997352 3.435989,1.462122 6.067814,1.462122 0.584829,0 1.315908,-0.219321 0.731096,-0.21932 1.096596,-0.219319 z M 61.756383,11.232722 q -1.462126,0 -2.997355,1.389017 -1.53523,1.389017 -3.21667,4.16705 -1.60833,2.778032 -3.070458,5.629172 -1.46212,2.851139 -3.655303,7.091295 -2.120081,4.240156 -3.874631,7.310613 5.044328,-0.804167 9.576906,-5.044323 4.605687,-4.313263 7.018191,-9.211373 2.485606,-4.898111 2.485606,-8.260993 0,-3.070458 -2.266286,-3.070458 z M 19.281716,53.414961 q 4.16705,0 8.992055,-5.994703 -3.362883,-2.339396 -6.214022,-2.339396 -2.63182,0 -4.386368,1.754548 -1.754547,1.754547 -1.754547,3.728413 0,1.242804 0.804168,2.046971 0.877273,0.804167 2.558714,0.804167 z m 62.432586,-33.84814 q -1.315903,0 -2.046969,-0.731063 -0.657962,-0.804167 -0.657962,-1.90076 0,-2.26629 1.90076,-4.605686 1.900758,-2.4125019 4.825003,-2.4125019 1.462122,0 2.339403,1.0234849 0.950375,0.950381 0.950375,2.120079 0,2.339396 -2.120081,4.459474 -2.046963,2.046971 -5.190537,2.046971 z m 4.167059,20.469718 q -13.30532,16.156456 -20.250402,16.156456 -1.97387,0 -3.143567,-1.389016 -1.096596,-1.462124 -1.096596,-3.874626 0,-4.167049 3.143568,-10.746601 3.216669,-6.579553 6.725761,-11.258346 3.5822,-4.751898 4.825007,-4.751898 1.389018,0 2.997348,1.535229 1.681446,1.462123 1.681446,2.339396 0,0.365532 -0.292455,0.657954 -3.582198,4.386369 -6.798866,10.454178 -3.14356,5.994703 -3.14356,8.334099 0,1.023486 0.731095,1.023486 1.315917,0 4.751906,-2.997352 3.435982,-3.070457 7.529927,-7.822356 0.219323,-0.219321 0.584826,-0.219321 0.7311,0 1.31591,0.877274 0.657959,0.804168 0.438644,1.681441 z M 107.74007,23.514552 q 2.55871,0 4.09394,1.681442 1.53523,1.681441 1.53523,4.459475 0,4.678792 -3.87463,11.112131 -3.87462,6.43334 -9.723112,11.258345 -5.775386,4.751899 -10.673491,4.751899 -3.728415,0 -6.360235,-2.704927 -2.558712,-2.778033 -2.558712,-6.506446 0,-4.53258 4.53258,-13.597741 4.532579,-9.138267 9.723116,-16.302668 5.19053,-7.164401 7.091294,-7.164401 1.60833,0 3.14356,1.389017 1.53523,1.389016 1.53523,2.485608 0,0.365532 -0.29246,0.657954 -7.09128,7.603037 -15.05985,21.566309 5.775386,-6.945082 9.72312,-10.01554 3.94773,-3.070458 7.1644,-3.070458 z M 89.024904,50.783141 q 2.412498,0 6.50644,-4.020837 4.167052,-4.093944 7.310606,-9.211373 3.14357,-5.190535 3.14357,-8.114781 0,-1.31591 -0.95038,-1.31591 -2.4125,0 -9.942433,8.260992 -7.456822,8.260994 -8.553418,12.062513 0,0.877274 0.584826,1.608335 0.657967,0.731063 1.900766,0.731063 z M 144.4393,37.477824 q 0.73102,0 1.38902,0.877274 0.65796,0.804168 0.36551,1.681441 -5.19053,6.579552 -11.69698,11.404557 -6.43334,4.751899 -12.86667,4.751899 -4.45948,0 -6.94509,-2.339397 -2.48561,-2.412502 -2.48561,-6.43334 0,-4.605686 3.07046,-10.234858 3.07046,-5.702278 7.96856,-9.723117 4.89812,-4.020836 9.50381,-4.020836 3.36288,0 5.48296,2.046971 2.12008,1.973865 2.12008,4.971217 0,4.605687 -4.97123,8.845843 -4.97121,4.167049 -10.30795,4.167049 -1.90077,0 -3.5091,-0.657954 -0.58484,1.973866 -0.58484,3.509095 0,3.5822 3.87463,3.5822 4.16705,0 9.28448,-3.362882 5.11743,-3.362882 9.72312,-8.845843 0.21931,-0.21932 0.58482,-0.21932 z M 133.91203,27.023647 q -2.04698,0 -5.77539,4.240156 -3.65531,4.240156 -5.70228,9.06516 h 0.58483 q 3.87462,0 7.74924,-4.751898 3.94774,-4.751898 3.94774,-7.603038 0,-0.95038 -0.80417,-0.95038 z m 38.23446,10.381071 q 0.80417,0 1.38901,0.877274 0.58483,0.877274 0.29245,1.754547 -5.70227,6.579552 -11.69698,11.404557 -5.9947,4.751899 -10.08865,4.751899 -2.26629,0 -3.5091,-1.535229 -1.16969,-1.608334 -1.16969,-3.801518 0,-6.725765 11.8432,-19.446233 -2.19318,0.804168 -4.97122,0.804168 -0.65796,0 -1.82765,-0.146211 -2.85115,4.020836 -6.21403,7.968568 -0.87727,0.146211 -1.82765,-0.731064 -0.8773,-0.950378 -0.51177,-1.608333 2.41251,-2.778033 5.04433,-7.091295 -1.31591,-1.169698 -1.31591,-3.21667 0,-3.143564 2.63182,-5.702278 2.63181,-2.558716 5.40985,-2.558716 2.12008,0 2.12008,2.046973 0,1.68144 -1.46212,4.751898 1.38902,0.219322 2.92425,0.219322 4.16704,0 6.65265,-1.1697 0.87727,0 1.75455,1.462124 0.87727,1.462123 0.87727,2.412502 0,0.292422 -0.3655,0.657954 -4.31327,5.263642 -7.74925,10.60039 -3.43599,5.263642 -3.43599,7.456826 0,0.950379 1.02348,0.950379 1.90076,0 5.70228,-3.070458 3.87463,-3.070457 7.82236,-7.74925 0.43864,-0.292422 0.65796,-0.292422 z m 23.17466,0.07313 q 0.7311,0 1.31592,0.877273 0.65796,0.804168 0.43864,1.681441 -5.9947,6.798871 -12.28184,11.477664 -6.21401,4.678792 -10.38106,4.678792 -5.19053,0 -5.19053,-5.629172 0,-3.947732 3.21667,-11.112132 -1.02349,-0.804168 -0.95039,-1.754547 3.07046,-3.655307 6.21403,-8.3341 0.0728,-0.07313 0.0728,-0.146211 h -1.0235 q -2.85113,0 -2.85113,-2.412502 0,-0.95038 0.36551,-1.827654 0.43864,-0.877274 0.73109,-0.877274 h 6.14092 q 3.36288,-4.89811 6.43334,-8.480312 3.14356,-3.582199 3.87462,-3.582199 1.53523,0 3.07046,1.315911 1.60834,1.315909 1.60834,2.339395 0,0.365532 -0.29246,0.584853 -2.26628,2.120077 -6.36022,7.895462 h 6.36022 q 0.80417,0 0.80417,0.731064 0,0.877273 -0.95038,1.973865 -0.87727,1.096592 -1.90076,1.389017 -1.1697,0.365531 -7.45682,0.657954 -8.69963,13.305317 -8.69963,18.203428 0,1.827653 1.53522,1.827653 2.19319,0 6.94509,-3.362882 4.825,-3.435988 8.62652,-7.895462 0.2193,-0.21932 0.5848,-0.21932 z m 34.72548,0 q 0.7311,0 1.2428,0.95038 0.58483,0.877273 0.43864,1.608334 -6.43334,8.260994 -18.56896,14.475016 -10.67349,18.788276 -19.59244,18.788276 -2.77804,0 -4.53258,-1.535229 -1.75455,-1.462123 -1.75455,-4.020838 0,-1.242804 0.43864,-2.339395 0.43864,-1.096593 1.53523,-2.120079 1.0966,-1.023486 2.12008,-1.827653 1.02349,-0.731064 2.99735,-1.754548 1.97387,-0.950379 3.36289,-1.608335 1.38901,-0.657954 4.02083,-1.827652 2.70493,-1.096593 4.24015,-1.827654 2.48561,-4.898111 7.16441,-15.425394 -11.69698,16.302667 -18.64207,16.302667 -4.09393,0 -4.09393,-5.190534 0,-4.020838 3.07045,-10.381072 3.07045,-6.360234 6.57955,-10.96592 3.5091,-4.605686 4.89811,-4.605686 1.38902,0 2.92425,1.389016 1.53522,1.389016 1.53522,2.485608 0,0.438634 -0.21932,0.657954 -3.58219,4.459475 -6.65266,10.015541 -2.99734,5.556066 -2.99734,7.895463 0,1.023486 0.7311,1.023486 1.82764,0 8.26098,-7.529932 6.50645,-7.603038 10.7466,-14.401908 0.65797,-1.169699 2.2663,-1.169699 1.68144,0 3.28977,1.023486 1.68144,1.023486 1.68144,2.120079 0,0.438633 -0.43864,0.877273 -1.0966,1.754547 -4.53258,9.211373 -3.43599,7.383719 -5.48296,11.404556 8.04167,-4.971217 13.30532,-11.477662 0.36551,-0.219322 0.65796,-0.219322 z m -35.16406,30.63147 q 3.43599,0 8.62654,-9.065161 -2.85115,1.242804 -4.31327,1.973865 -1.46212,0.731064 -3.14357,1.681442 -1.68144,1.023486 -2.41249,1.827653 -0.65797,0.877275 -0.65797,1.827654 0,1.754547 1.90076,1.754547 z"
      />
</svg>
