<svg
   viewBox="0 0 16.933332 16.933332"
   xmlns="http://www.w3.org/2000/svg">
<title>Liberty Logo</title>

    <path
       style="font-size:16.9333px;font-family:Fineday-StyleOne;-inkscape-font-specification:Fineday-StyleOne;text-align:center;text-anchor:middle;fill:currentColor;stroke-width:0.264583"
       d="m 14.791252,13.546661 q 0.253999,0 0.253999,0.270933 0,0.541866 -0.728132,1.236131 -0.728132,0.711199 -1.676396,0.711199 -0.524933,0 -1.100665,-0.254 Q 10.981259,15.273858 10.354727,14.765859 9.7451284,14.25786 9.270996,13.817594 8.8137969,13.377328 8.1195316,12.66613 7.4421996,11.954931 7.069667,11.599332 q -1.5747969,1.354664 -3.4035933,1.354664 -1.2022643,0 -1.8287964,-0.491066 -0.6265321,-0.491066 -0.6265321,-1.219197 0,-0.829732 0.7789318,-1.4901308 0.7789318,-0.6603987 2.0489293,-0.6603987 1.1345311,0 2.4553285,0.5757322 Q 6.8664674,9.0932035 7.0527337,8.7714708 5.8504694,8.331205 5.2578039,7.4337401 4.6651384,6.5193419 4.6651384,5.621877 q 0,-0.9821314 0.6434654,-1.5070637 0.6434654,-0.5249323 1.2361309,-0.5249323 0.3725326,0 0.3725326,0.2370662 0,0.084666 -0.033867,0.1354664 -0.2201329,0.6434654 -0.2201329,1.3207974 0,1.5578636 1.0329313,2.370662 Q 7.7808656,7.5014733 7.9501986,7.1966739 8.593664,6.0282762 8.9492633,5.4356107 9.3048626,4.8260119 9.948328,3.8777471 10.591793,2.912549 11.082859,2.4214833 11.590858,1.9304176 12.26819,1.557885 q 0.677332,-0.3894659 1.354664,-0.3894659 0.931332,0 1.507064,0.6095988 0.592665,0.5926655 0.592665,1.5578636 0,0.846665 -0.474132,1.8287964 -0.474133,0.9821314 -1.286931,1.862663 -0.812798,0.8635983 -2.099729,1.4562638 -1.269998,0.5757322 -2.7262614,0.6095988 -0.4402658,0.7111986 -1.015998,1.4223975 0.5757322,0.338666 1.6255968,1.032931 1.0498646,0.677332 1.6594636,1.066798 0.626532,0.372532 1.422397,0.694265 0.795865,0.338666 1.405464,0.338666 0.135466,0 0.304799,-0.0508 0.169333,-0.0508 0.254,-0.0508 z M 13.605921,2.2182837 q -0.338666,0 -0.694266,0.3217327 -0.355599,0.3217327 -0.745065,0.9651981 -0.372532,0.6434654 -0.711198,1.3038641 -0.338666,0.6603987 -0.846665,1.6425301 -0.491066,0.9821314 -0.8974652,1.69333 1.1683972,-0.1862663 2.2182622,-1.1683977 1.066798,-0.9990647 1.625597,-2.1335958 0.575732,-1.1345311 0.575732,-1.9134629 0,-0.7111986 -0.524932,-0.7111986 z M 3.7676735,11.988798 q 0.9651981,0 2.0827959,-1.388531 -0.7789318,-0.541865 -1.4393305,-0.541865 -0.6095988,0 -1.015998,0.406399 -0.4063992,0.406399 -0.4063992,0.863598 0,0.287866 0.1862663,0.474132 0.2031996,0.186267 0.5926655,0.186267 z"
    />
  
</svg>
